<svg xmlns="http://www.w3.org/2000/svg" width="19.528" height="14.253" viewBox="0 0 19.528 14.253"><g transform="translate(0.5 -3.069)"><path d="M5.761,16.089a9.4,9.4,0,0,0,5,1.491c5.9,0,9.264-5.79,9.264-5.79a14.131,14.131,0,0,0-4.261-4.3M12.532,6.174A8.885,8.885,0,0,0,10.764,6C4.869,6,1.5,11.79,1.5,11.79A13.482,13.482,0,0,0,3.319,14.1m5.659-.774a2.8,2.8,0,0,0,2.474.624,2.376,2.376,0,0,0,1.823-1.566,1.982,1.982,0,0,0-.726-2.126" transform="translate(-1.5 -1.665)" fill="none" stroke="#000" stroke-linecap="round" stroke-linejoin="round" stroke-width="1"/><path d="M18.492,5.274,3.622,18.117" transform="translate(-1.984 -1.5)" fill="none" stroke="#000" stroke-linecap="round" stroke-linejoin="round" stroke-width="1"/><path d="M5.761,16.089a9.4,9.4,0,0,0,5,1.491c5.9,0,9.264-5.79,9.264-5.79a14.131,14.131,0,0,0-4.261-4.3M12.532,6.174A8.885,8.885,0,0,0,10.764,6C4.869,6,1.5,11.79,1.5,11.79A13.482,13.482,0,0,0,3.319,14.1m5.659-.774a2.8,2.8,0,0,0,2.474.624,2.376,2.376,0,0,0,1.823-1.566,1.982,1.982,0,0,0-.726-2.126" transform="translate(-1.5 -1.665)" fill="none" stroke="#000" stroke-linecap="round" stroke-linejoin="round" stroke-width="1"/></g></svg>