<svg xmlns="http://www.w3.org/2000/svg" width="282.814" height="174.259" viewBox="0 0 282.814 174.259"><path d="M510.435,364.218l-.356-.371c.071-.068,7.084-6.936,9.757-19.77,2.469-11.852,1.635-31.364-16.356-57.018-7.517-10.718-12.643-20.845-15.236-30.1-2.119-7.561-2.567-14.59-1.333-20.892,2.44-12.459,10.732-17.929,10.815-17.983l.279.432c-.082.053-8.2,5.42-10.592,17.665-2.744,14.049,2.8,31.067,16.489,50.581,7.991,11.4,13.311,22.553,15.811,33.165a55.72,55.72,0,0,1,.62,24.286C517.62,357.193,510.506,364.149,510.435,364.218Z" transform="translate(-377.674 -191.183)" fill="#f2f2f2"/><circle cx="19.903" cy="19.903" r="19.903" transform="translate(95.595 15.792)" fill="#f2f2f2"/><path d="M453.121,167.685a27.119,27.119,0,1,1,27.119-27.119A27.119,27.119,0,0,1,453.121,167.685Zm0-53.723a26.6,26.6,0,1,0,26.6,26.6,26.6,26.6,0,0,0-26.6-26.6Z" transform="translate(-332.93 -113.448)" fill="#f2f2f2"/><circle cx="16.505" cy="16.505" r="16.505" transform="translate(118.896 64.337)" fill="#f2f2f2"/><circle cx="16.505" cy="16.505" r="16.505" transform="translate(110.482 121.62)" fill="#f2f2f2"/><rect width="60.419" height="39.337" transform="translate(135.859 29.31)" fill="#536dfe"/><path d="M979.086,705.684H923.13S922,689.049,928.707,688.86s5.955,7.373,14.367-3.025,18.621-9.83,19.944-3.686-2.552,11.059,4.537,9.547S984.853,694.153,979.086,705.684Z" transform="translate(-702.191 -532.654)" fill="#f2f2f2"/><path d="M1027.944,705.405l-.189-.008c.44-10.953,2.734-17.99,4.581-21.965a19.942,19.942,0,0,1,3.957-6.08l.126.141a19.8,19.8,0,0,0-3.918,6.033C1030.665,687.486,1028.381,694.494,1027.944,705.405Z" transform="translate(-779.971 -532.371)" fill="#fff"/><path d="M1106.736,750.906l-.181-.053a29.325,29.325,0,0,1,7.383-12.283l.127.14A29.126,29.126,0,0,0,1106.736,750.906Z" transform="translate(-838.51 -577.849)" fill="#fff"/><path d="M943.282,738.934l-.187-.026a20.589,20.589,0,0,0-1.852-12.034,16.571,16.571,0,0,0-2.923-4.265l.131-.136a16.778,16.778,0,0,1,2.961,4.318A20.777,20.777,0,0,1,943.282,738.934Z" transform="translate(-713.53 -565.89)" fill="#fff"/><path d="M142.222,700.7l-.129-.265c-.039-.081-3.9-8.161-1.75-16.128s9.568-13,9.642-13.047l.245-.164.129.265c.039.081,3.9,8.161,1.749,16.128s-9.567,13-9.642,13.047Zm7.8-28.838c-1.3.944-7.3,5.621-9.183,12.578s.945,14.024,1.59,15.492c1.3-.944,7.3-5.621,9.183-12.578h0c1.883-6.963-.945-14.024-1.59-15.492Z" transform="translate(-120.23 -527.72)" fill="#3f3d56"/><path d="M108.893,688.51c2.155,7.966,9.537,12.9,9.537,12.9s3.888-7.982,1.732-15.949-9.537-12.9-9.537-12.9S106.738,680.544,108.893,688.51Z" transform="translate(-96.867 -528.811)" fill="#536dfe"/><path d="M86.493,723.993l-.294-.016c-.09,0-9.03-.556-14.945-6.313s-6.705-14.68-6.713-14.769l-.024-.294.294.016c.09,0,9.03.556,14.944,6.313s6.706,14.68,6.713,14.769ZM65.087,703.155c.194,1.593,1.362,9.113,6.526,14.14s12.713,5.992,14.311,6.144c-.194-1.593-1.362-9.113-6.526-14.14h0C74.229,704.268,66.684,703.306,65.087,703.155Z" transform="translate(-64.384 -551.128)" fill="#3f3d56"/><path d="M155.537,709.9c-5.914,5.757-6.636,14.606-6.636,14.606s8.866-.484,14.779-6.241,6.636-14.606,6.636-14.606S161.45,704.146,155.537,709.9Z" transform="translate(-127.073 -551.916)" fill="#3f3d56"/><path d="M342.537,515.9c-5.914,5.757-6.636,14.606-6.636,14.606s8.866-.484,14.779-6.241,6.636-14.606,6.636-14.606S348.45,510.146,342.537,515.9Z" transform="translate(-265.994 -407.794)" fill="#3f3d56"/><circle cx="3.857" cy="3.857" r="3.857" transform="translate(17.848 134.722)" fill="#536dfe"/><path d="M274.552,449.782l-.356-.371c.056-.054,5.619-5.5,7.738-15.685,1.957-9.4,1.292-24.888-12.986-45.248-10.951-15.616-15.383-29.258-13.172-40.55,1.942-9.92,8.549-14.277,8.615-14.32l.279.432c-.065.042-6.5,4.3-8.392,14-2.176,11.146,2.229,24.651,13.091,40.139,6.352,9.058,10.581,17.929,12.569,26.365a44.318,44.318,0,0,1,.493,19.316C280.272,444.19,274.609,449.728,274.552,449.782Z" transform="translate(-206.059 -277.005)" fill="#3f3d56"/><ellipse cx="46.279" cy="7.939" rx="46.279" ry="7.939" transform="translate(19.648 53.539)" fill="#536dfe"/><path d="M121.626,316.5c-32.078,0-57.205-4.4-57.205-10.027s25.128-10.027,57.205-10.027,57.205,4.4,57.205,10.027S153.7,316.5,121.626,316.5Zm0-19.54c-30.73,0-56.691,4.356-56.691,9.513s25.962,9.513,56.691,9.513,56.691-4.356,56.691-9.513S152.356,296.963,121.626,296.963Z" transform="translate(-64.313 -249.399)" fill="#3f3d56"/><path d="M308.782,183.417s-6.858-1.932-8.886,7.437-.483,14.1-.483,14.1l15.31-1.787S319.069,186.267,308.782,183.417Z" transform="translate(-238.469 -165.306)" fill="#2f2e41"/><path d="M273.068,341.729s-10.059,1-8.268,5.063a28.966,28.966,0,0,1,1.792,4.42l8.839,15.767,2.867-2.986s-3.225-7.047-3.225-9.317-3.344-6.211-3.344-6.211l5.853-.478Z" transform="translate(-213.015 -283.037)" fill="#a0616a"/><path d="M383.395,359.112l3.345,7.286s2.508,2.508,5.256,12.542,3.344,9.675,3.344,9.675l-4.181.836s-4.658-10.87-6.211-11.706-3.464-8.481-3.464-8.481l-5.495-6.928,1.672-3.7Z" transform="translate(-295.776 -295.596)" fill="#a0616a"/><path d="M317.209,320.378l5.136,9.556s-6.45-2.986-7.406,3.583l-5.853-4.539s-8.122,2.628-13.02,1.672c0,0,1.433-4.539-3.7-6.57l11.586-1.433-.478-2.508,1.194-2.389Z" transform="translate(-233.651 -265.223)" fill="#2f2e41"/><path d="M302.25,421.718s-3.225-.478-2.389,2.389l1.672,5.733s-2.15,5.853,1.194,4.539,5.495-9.436,5.495-9.436,1.433-6.211,0-6.211-5.972-.956-5.495,0S302.25,421.718,302.25,421.718Z" transform="translate(-239.118 -339.927)" fill="#2f2e41"/><path d="M432.87,467.758s-4.181-1.075-5.136.6-.717,7.167-.717,7.286a4.874,4.874,0,0,0,1.911,1.314c.478,0,3.464,5.375,7.525,3.464S432.87,467.758,432.87,467.758Z" transform="translate(-333.665 -376.411)" fill="#2f2e41"/><circle cx="4.658" cy="4.658" r="4.658" transform="translate(64.447 23.382)" fill="#a0616a"/><path d="M333.308,226.227s.956,5.017,1.792,5.733-6.331,1.792-6.331,1.792,1.075-3.464-.239-5.256S333.308,226.227,333.308,226.227Z" transform="translate(-260.381 -197.231)" fill="#a0616a"/><path d="M330.462,265.354a42.237,42.237,0,0,1-5.207-.77c-2.009-.375-4.208-.821-5.942-1.181-1.857-.387-3.184-.676-3.184-.676s-.478,2.986-2.031,2.628c-1.338-.308-5.336-14.273-6.417-18.132a1.343,1.343,0,0,1,.594-1.509l5.491-3.353,1.407.538s2.377-1.837,3.757-1.874,3.769-.4,3.769-.4,2.747.239,3.225,2.269.717,14.692,2.508,16.961S332.731,265.354,330.462,265.354Z" transform="translate(-244.992 -207.93)" fill="#d0cde1"/><path d="M331.389,359.709s0,4.658,3.106,3.942.239-5.017.239-5.017Z" transform="translate(-262.642 -295.596)" fill="#a0616a"/><path d="M352.261,361.567s-1.075,5.495-3.345,4.658,0-5.733,0-5.733Z" transform="translate(-274.914 -296.976)" fill="#a0616a"/><path d="M361.11,284.7s-1.169,2.79-2.1,5.082c-2.009-.375-4.208-.821-5.943-1.181a3.421,3.421,0,0,1,.518-.915c.836-.956.358-1.194.358-1.194a5.168,5.168,0,0,1-.119-3.345c-1.433-3.822.717-8.6.717-8.6Z" transform="translate(-278.747 -233.125)" opacity="0.15"/><path d="M351.564,264.885s-2.15,4.778-.717,8.6a5.168,5.168,0,0,0,.119,3.345s.478.239-.358,1.194-1.553,4.3-.956,5.017-.836,2.031-.478,2.747-.6,1.672-.6,1.672,3.583.717,4.181,1.792a1.933,1.933,0,0,0,.358-1.792,1.763,1.763,0,0,1,.239-1.911,14.308,14.308,0,0,0,1.553-2.508c.119-.6,3.225-8,3.225-8l-1.456-13.5Z" transform="translate(-275.412 -223.467)" fill="#d0cde1"/><path d="M308.044,261.535l-.223.041a1.343,1.343,0,0,0-1.1,1.331c.008,1.2.076,3.328.371,6.273a78.288,78.288,0,0,0,2.508,12.661,38.125,38.125,0,0,0,1.911,3.7c1.075,1.792,1.314,1.194,1.075,2.031a1.258,1.258,0,0,0,.358,1.314s2.15-2.389,4.3-1.075a2.661,2.661,0,0,0,.239-1.075c0-.6.358-1.194-.239-1.553s.358-1.911-.6-2.747-1.075-.717-.956-1.553a3.558,3.558,0,0,0-.239-1.672Z" transform="translate(-244.314 -223.461)" fill="#d0cde1"/><path d="M318.066,199.235s-1.932,5.119-6.665,7.244l-.773-4.54Z" transform="translate(-247.22 -177.179)" fill="#2f2e41"/><ellipse cx="0.657" cy="1.254" rx="0.657" ry="1.254" transform="translate(72.987 24.994)" fill="#a0616a"/><circle cx="8.344" cy="8.344" r="8.344" transform="translate(200.376 75.576)" fill="#2f2e41"/><circle cx="2.772" cy="2.772" r="2.772" transform="translate(204.834 70.189)" fill="#2f2e41"/><path d="M856.348,393.185a2.772,2.772,0,0,1,.237-3.71q-.116.075-.227.162a2.772,2.772,0,1,0,3.448,4.341,2.732,2.732,0,0,0,.209-.184A2.772,2.772,0,0,1,856.348,393.185Z" transform="translate(-651.862 -318.508)" fill="#2f2e41"/><path d="M795.165,557.219l-4.829,4.086s-7.244,2.229-3.715,4.644,5.572-2.972,5.572-2.972l5.944-3.715Z" transform="translate(-600.113 -443.124)" fill="#ffb9b9"/><path d="M828.763,486.789l-.557-.372a2.66,2.66,0,0,0-2.6,2.229c-.372,2.229-1.486,6.873-1.486,6.873s-3.715,2.229-3.343,6.315l-3.9,3.343s4.644,1.486,3.715,2.786l6.873-6.315.186-12.074Z" transform="translate(-623.308 -390.526)" fill="#2f2e41"/><circle cx="4.829" cy="4.829" r="4.829" transform="translate(202.854 82.332)" fill="#ffb9b9"/><path d="M862.246,459.024s2.972,3.343,1.115,5.2-2.415,10.959-2.415,10.959l8.173-12.445s-2.229-4.458-2.043-5.944Z" transform="translate(-656.048 -368.52)" fill="#ffb9b9"/><path d="M807.443,485.79s4.458-9.791,6.873-10.468l6.315,1.552s-5.015,17.275-4.458,18.946,3.715,4.086,2.6,18.761c0,0,14.3,26.191,10.773,30.648s-16.717,7.8-16.9,6.5-6.13-21.361-5.2-27.491c0,0,0,26.562-1.115,27.119S787.383,556,787.94,552.846s9.473-37.893,9.473-37.893l6.873-21.547.186-3.158s-2.972-2.043-.743-6.687,2.972-5.387,2.972-5.387l2.676-.5S806.886,484.49,807.443,485.79Z" transform="translate(-601.803 -382.283)" fill="#2f2e41"/><path d="M887.344,570.223l-2.229,4.829s-5.758,6.13-1.672,6.315S887.9,575.8,887.9,575.8l2.972-5.572Z" transform="translate(-671.673 -452.785)" fill="#ffb9b9"/><path d="M899.716,481.743h2.415s.743-1.115,1.486,3.529a70.034,70.034,0,0,1,.372,11.7l-1.115,9.288s-3.9-1.486-4.829-1.115,0-.186,0-.186l1.672-6.315-2.043-9.1Z" transform="translate(-683.302 -386.966)" fill="#2f2e41"/><path d="M855.785,423.768c-3.155.857-5.307,3.044-4.807,4.884a2.808,2.808,0,0,0,1.949,1.787l.883-1.1.04,1.329c.14.024.281.045.428.061l1.122-2.363.64,2.354a9.937,9.937,0,0,0,1.556-.293c3.155-.857,5.307-3.044,4.807-4.884S858.94,422.911,855.785,423.768Z" transform="translate(-648.59 -343.727)" fill="#2f2e41"/><ellipse cx="0.557" cy="0.929" rx="0.557" ry="0.929" transform="translate(212.049 85.211)" fill="#ffb9b9"/><ellipse cx="4.371" cy="1.928" rx="4.371" ry="1.928" transform="translate(189.336 169.174)" fill="#2f2e41"/><ellipse cx="5.861" cy="2.571" rx="5.861" ry="2.571" transform="translate(210.094 169.475) rotate(-21.513)" fill="#2f2e41"/><path d="M760.96,363.542a16.477,16.477,0,0,1-10.6-9.669c-3.307-8.786.581-21.177,11.556-36.826,13.405-19.115,14.133-25.538,12.383-27.56-2.214-2.558-9.159.906-9.229.941l-.232-.459c.3-.152,7.374-3.678,9.849-.819,2.72,3.142-1.436,12.627-12.351,28.192-5.947,8.481-9.835,16.093-11.554,22.625-1.394,5.3-1.375,9.911.055,13.717a15.942,15.942,0,0,0,10.247,9.358Z" transform="translate(-573.044 -243.149)" fill="#3f3d56"/><path d="M624.954,234.614H560.421V192.449h64.533Zm-64.019-.514h63.5V192.963h-63.5Z" transform="translate(-432.79 -172.138)" fill="#3f3d56"/><circle cx="2.708" cy="2.708" r="2.708" transform="translate(151.799 41.57)" fill="#3f3d56"/><circle cx="2.708" cy="2.708" r="2.708" transform="translate(174.921 41.57)" fill="#3f3d56"/><path d="M687.474,327.711c0,.805-5.223,3.125-11.665,3.125s-11.665-2.319-11.665-3.125,5.223.208,11.665.208S687.474,326.905,687.474,327.711Z" transform="translate(-509.845 -272.392)" fill="#3f3d56"/><rect width="282.814" height="0.514" transform="translate(0 172.658)" fill="#3f3d56"/></svg>