<svg xmlns="http://www.w3.org/2000/svg" width="282" height="169.617" viewBox="0 0 282 169.617"><path d="M81.891,392.422l16.552-23.781-16.56,26.368-.01,2.706q-1.77-.015-3.505-.115c-.005-.614,1.4-34.417,1.342-35.029.082-.023.127-3.2.16-3.336L62.578,333.247l17.31,23.528.052.7,1.027-26.263L66.1,304.314l14.981,22.28c.006-.357.709-54.281.716-54.613,0,.177.327,42.912.33,43.092l14.216-17.2-14.229,20.9-.073,23.5,13.192-22.73c-16.463,33.148-12.82,21.548-13.24,39.255l19.162-31.649L81.978,363.359Z" transform="translate(-62.49 -233.215)" fill="#d0cde1"/><path d="M1084.2,603.771l6.9-9.91-6.9,10.988,0,1.128q-.738-.006-1.461-.048c0-.256.584-14.343.559-14.6.034-.01.053-1.332.067-1.39l-7.2-10.83,7.214,9.8.021.29.428-10.944-6.194-11.207,6.243,9.284c0-.149.3-22.62.3-22.759,0,.074.136,17.883.137,17.958l5.924-7.168-5.931,8.709-.03,9.8,5.5-9.472c-6.861,13.813-5.342,8.979-5.518,16.359l7.985-13.189-7.992,15.089Z" transform="translate(-810.226 -441.336)" fill="#d0cde1"/><ellipse cx="140.541" cy="5.48" rx="140.541" ry="5.48" transform="translate(0 158.657)" fill="#d0cde1"/><rect width="159.693" height="95.208" transform="translate(48.552 65.537)" fill="#3f3d56"/><path d="M285.763,374.581a38.189,38.189,0,0,1-38.18,37.567c-.449,0-.895-.008-1.341-.023V374.581Z" transform="translate(-197.959 -309.458)" fill="#536dfe"/><path d="M539.16,724.443H523.972a8.091,8.091,0,0,1,15.188,0Z" transform="translate(-402.873 -563.698)" fill="#536dfe"/><path d="M814.993,550.721V582.79a16.054,16.054,0,0,1,0-32.069Z" transform="translate(-606.302 -439.378)" fill="#536dfe"/><rect width="110.152" height="9.41" rx="4.705" transform="translate(73.502 99.825)" fill="#fff"/><rect width="110.152" height="9.41" rx="4.705" transform="translate(73.502 118.464)" fill="#fff"/><rect width="38.62" height="9.41" rx="4.705" transform="translate(145.264 137.22)" fill="#fff"/><path d="M941.474,238.652a8.089,8.089,0,0,1,4.635,7.319c.244,5.611-1.22,21.224-1.22,21.224s5.367,7.807,1.22,10-4.635-8.782-4.635-8.782L936.6,245.239S939.523,238.408,941.474,238.652Z" transform="translate(-707.086 -209.212)" fill="#a0616a"/><path d="M752.046,217.054s-10.49,6.831-10.978,1.464,3.171-26.347,3.171-26.347.488-9.026,5.611-6.831-1.464,9.758-1.464,9.758l.732,17.077L754,211.93Z" transform="translate(-563.006 -169.745)" fill="#a0616a"/><path d="M761.22,318.628s-32.2-11.954-30.495,1.952,10,31.471,10,31.471l2.927,4.635h6.1l-3.9-25.128s13.906,7.807,18.053,6.587c0,0,5.367,35.862,7.319,38.545s5.367,35.13,5.367,35.13l3.171,3.9h6.1v-54.89s10.49-34.154,2.44-35.862S761.22,318.628,761.22,318.628Z" transform="translate(-555.168 -264.16)" fill="#2f2e41"/><path d="M724.877,462.48s-1.464-2.684-3.9,0-8.295,5.855-8.295,5.855-12.686,2.927-2.44,5.367,11.466,0,11.466,0,1.708.488,3.171.976,10.978-1.22,10.978-2.684-3.23-10.211-4.543-8.887S724.877,462.48,724.877,462.48Z" transform="translate(-537.29 -373.483)" fill="#2f2e41"/><path d="M877.21,688.587s-3.6-2.962-4.443-2.116-5.29,6.559-5.29,6.559-11.849,9.1-1.058,10.58,10.156-2.539,10.156-2.539h3.385c.423,0,6.136-2.539,5.924-3.6s-2.751-9.685-3.6-9.074S877.21,688.587,877.21,688.587Z" transform="translate(-652.123 -539.438)" fill="#2f2e41"/><circle cx="8.295" cy="8.295" r="8.295" transform="translate(183.96 3.397)" fill="#a0616a"/><path d="M803.349,167.615s6.343,5.367,10.734,5.367-6.343,10-6.343,10l-9.514-8.539Z" transform="translate(-605.192 -156.9)" fill="#a0616a"/><path d="M786.786,183.546l-.19-1.922s4.825-8.568,6.289-9.3a6.056,6.056,0,0,1,2.44-.732s4.879-5.123,10.246-2.44,18.053,19.761,18.053,19.761-9.026.732-7.807,7.807c0,0,9.026,23.176,6.587,23.42s-9.758-1.464-17.321,1.952-10.978,1.22-10.978,1.22l-3.9-12.686s-7.319-4.147-7.075-7.807l-10.612,4.757.976-9.026,6.465-7.441S778.736,190.133,786.786,183.546Z" transform="translate(-586.082 -157.461)" fill="#575a89"/><path d="M754.414,139.139a3.062,3.062,0,0,1-1.2.82,1.051,1.051,0,0,1-1.256-.483l.351-.456-1.051-.653.458-.538-.847-.92.668-.53-1.273-.91c1.649-2.691,3.433-5.417,6.037-7.2s6.243-2.418,8.911-.731a9.744,9.744,0,0,1,3.149,3.706c1.578,2.894,2.969,5.715,3.174,9-.991-.965-2.438-1.509-3.429-2.474a7.424,7.424,0,0,0-1.479-1.211,12.377,12.377,0,0,0-3.437-.9,5.164,5.164,0,0,1-2.347-1.29c-.878-.748-.914-.459-1.8.383Q756.727,136.948,754.414,139.139Z" transform="translate(-569.791 -126.551)" fill="#2f2e41"/></svg>